<?xml version="1.0" encoding="UTF-8" standalone="no"?>
<svg
   xmlns:dc="http://purl.org/dc/elements/1.1/"
   xmlns:cc="http://creativecommons.org/ns#"
   xmlns:rdf="http://www.w3.org/1999/02/22-rdf-syntax-ns#"
   xmlns:svg="http://www.w3.org/2000/svg"
   xmlns="http://www.w3.org/2000/svg"
   id="svg8"
   version="1.1"
   viewBox="0 0 95.995002 25.177999"
   height="25.177999mm"
   width="95.995003mm">
  <defs
     id="defs2" />
  <metadata
     id="metadata5">
    <rdf:RDF>
      <cc:Work
         rdf:about="">
        <dc:format>image/svg+xml</dc:format>
        <dc:type
           rdf:resource="http://purl.org/dc/dcmitype/StillImage" />
        <dc:title></dc:title>
      </cc:Work>
    </rdf:RDF>
  </metadata>
  <g
     transform="translate(0,-271.822)"
     id="layer1">
    <g
       id="text823"
       style="font-style:normal;font-variant:normal;font-weight:normal;font-stretch:normal;font-size:29.09494781px;line-height:1.25;font-family:'Open Sans Condensed';-inkscape-font-specification:'Open Sans Condensed, ';letter-spacing:0px;word-spacing:0px;fill:#000000;fill-opacity:1;stroke:none;stroke-width:0.72737366"
       aria-label="soash.">
      <path
         transform="matrix(0.26458333,0,0,0.26458333,-20.075777,203.31528)"
         d="m 357.07617,258.92188 c -2.41257,0 -4.86458,0.90237 -6.63281,2.55273 a 3.7596576,3.7596576 0 0 0 -0.0937,0.0898 c -1.75427,1.75427 -2.64063,4.27835 -2.64063,6.72657 v 74.77539 c 0,2.40954 0.89884,4.86285 2.55079,6.63281 a 3.7596576,3.7596576 0 0 0 0.18359,0.18359 c 1.76822,1.65035 4.22024,2.55274 6.63281,2.55274 2.45111,0 4.97397,-0.88999 6.72656,-2.64258 a 3.7596576,3.7596576 0 0 0 0.0899,-0.0937 c 1.65194,-1.76996 2.55078,-4.22327 2.55078,-6.63281 v -31.00977 c 0,-1.96184 0.47096,-3.53235 1.45703,-5.05078 1.08979,-1.56586 2.51244,-2.79948 4.47852,-3.78516 2.02695,-0.97994 4.23901,-1.48047 6.80078,-1.48047 4.54705,0 7.61495,1.20209 10.01758,3.54883 a 3.7596576,3.7596576 0 0 0 0.0645,0.0605 c 2.32261,2.16424 3.64258,5.40919 3.64258,10.66601 v 27.05079 c 0,2.40954 0.89884,4.86285 2.55078,6.63281 a 3.7596576,3.7596576 0 0 0 0.18359,0.18359 c 1.76822,1.6503 4.22025,2.55274 6.63281,2.55274 2.41258,0 4.89574,-0.92113 6.61719,-2.64258 1.74843,-1.74843 2.75195,-4.25796 2.75195,-6.72656 v -27.05079 c 0,-6.4074 -1.23504,-12.11753 -3.85546,-16.94726 v -0.002 c -2.58137,-4.82904 -6.3062,-8.65885 -10.97071,-11.20313 -4.61124,-2.51522 -9.8314,-3.75976 -15.43554,-3.75976 -4.10478,0 -8.04907,0.7528 -11.72657,2.25195 -1.1369,0.44092 -2.15579,1.05867 -3.20898,1.62695 v -19.6914 c 0,-2.44822 -0.88636,-4.9723 -2.64063,-6.72657 -1.75259,-1.75261 -4.27545,-2.64258 -6.72656,-2.64257 z m -252.36719,25.29296 c -4.28719,0 -8.404716,0.69373 -12.275386,2.09375 -3.96634,1.43463 -7.361262,3.68271 -9.9375,6.70313 -2.704416,3.17069 -4.089844,7.23226 -4.089844,11.5664 0,5.42945 2.402426,10.40612 6.648438,13.9004 4.246011,3.49427 10.102016,5.73773 17.513672,7.16601 a 3.7596576,3.7596576 0 0 0 0.0117,0.002 c 5.1815,0.9803 8.69456,2.29127 10.13867,3.26954 a 3.7596576,3.7596576 0 0 0 0.0703,0.0449 c 1.52934,0.98668 1.68554,1.42889 1.68555,2.44922 -1e-5,1.09217 -0.13092,1.45737 -1.67969,2.37695 a 3.7596576,3.7596576 0 0 0 -0.0449,0.0273 c -1.39687,0.85615 -3.94909,1.53321 -7.71094,1.53321 -2.70133,0 -5.165086,-0.46153 -7.488279,-1.37305 -2.424261,-1.02636 -4.030821,-2.14436 -4.90039,-3.10547 a 3.7596576,3.7596576 0 0 0 -0.128907,-0.13672 c -1.810471,-1.81045 -4.240072,-3.08203 -6.835937,-3.08203 -2.268456,0 -4.280492,0.94548 -6.080078,2.27149 a 3.7596576,3.7596576 0 0 0 -0.02539,0.0195 c -2.236532,1.67739 -3.703125,4.49331 -3.703125,7.29687 0,2.22486 0.963753,4.50087 2.53125,6.06836 3.00088,3.00088 6.965691,5.26231 11.751953,6.9375 4.816986,1.68594 9.946624,2.51953 15.318364,2.51953 5.37173,0 10.14525,-0.82406 14.26171,-2.625 a 3.7596576,3.7596576 0 0 0 0.0332,-0.0137 c 4.09299,-1.83767 7.43611,-4.44286 9.71289,-7.8125 a 3.7596576,3.7596576 0 0 0 0.0254,-0.0391 c 2.2151,-3.36694 3.36914,-7.2488 3.36914,-11.30274 0,-5.47029 -2.26172,-10.47049 -6.37695,-13.96484 -4.16603,-3.60102 -10.32011,-5.85611 -18.61133,-7.53125 -3.74256,-0.77676 -6.53382,-1.55653 -8.23633,-2.2207 -1.653538,-0.72149 -2.496991,-1.44206 -2.572266,-1.52344 -0.22158,-0.32511 -0.380859,-0.68161 -0.380859,-1.48242 0,-0.75667 -0.123232,-0.72789 1.154297,-1.38867 a 3.7596576,3.7596576 0 0 0 0.04297,-0.0234 c 1.494037,-0.79682 3.650279,-1.31446 6.587889,-1.31446 2.61916,0 4.69649,0.3386 6.21484,0.88086 a 3.7596576,3.7596576 0 0 0 0.11329,0.0371 c 1.47618,0.47449 2.93638,1.32764 4.43359,2.70508 a 3.7596576,3.7596576 0 0 0 0.0234,0.0215 c 2.1113,1.91022 4.867,3.0625 7.68945,3.0625 1.83431,0 3.73698,-0.46743 5.29102,-1.59766 a 3.7596576,3.7596576 0 0 0 0.17968,-0.13867 c 1.82401,-1.50213 3.23828,-3.81367 3.23829,-6.3125 0,-2.18992 -0.93223,-4.23762 -2.26954,-5.88477 -2.64667,-3.26423 -6.23256,-5.75964 -10.51757,-7.49219 -4.25622,-1.75059 -9.01067,-2.58789 -14.17579,-2.58789 z m 65.86914,0 c -6.4241,0 -12.36735,1.47444 -17.57812,4.44922 -5.18324,2.88637 -9.32861,7.03059 -12.21094,12.21875 -2.89795,5.21632 -4.32226,11.18218 -4.32226,17.66211 0,6.4134 1.42856,12.34212 4.32226,17.55078 2.8834,5.1901 7.02097,9.36523 12.19922,12.32422 a 3.7596576,3.7596576 0 0 0 0.0391,0.0234 c 5.20937,2.89409 11.13823,4.32031 17.55078,4.32031 6.41258,0 12.31446,-1.42761 17.4629,-4.33398 a 3.7596576,3.7596576 0 0 0 0.0176,-0.01 c 5.17865,-2.95922 9.31428,-7.13482 12.19727,-12.32422 2.89371,-5.20866 4.32226,-11.13739 4.32226,-17.55078 0,-6.49043 -1.47005,-12.47092 -4.44921,-17.68945 -2.88023,-5.17218 -7.01547,-9.30665 -12.18555,-12.1875 -5.13855,-2.97741 -11.01291,-4.45313 -17.36524,-4.45313 z m 74.22461,0 c -6.24534,0 -12.12454,1.53437 -17.38085,4.57227 -0.001,7.3e-4 -0.003,0.001 -0.004,0.002 -5.16885,2.95741 -9.32239,7.15449 -12.26953,12.38477 -4.4e-4,7.6e-4 -0.002,0.001 -0.002,0.002 -2.9699,5.19831 -4.45311,11.07342 -4.45312,17.36914 2e-5,6.24836 1.34255,12.09312 4.04687,17.33789 a 3.7596576,3.7596576 0 0 0 0.0332,0.0625 c 2.77479,5.1415 6.63621,9.31117 11.44336,12.29492 a 3.7596576,3.7596576 0 0 0 0.0234,0.0156 c 4.90608,2.99354 10.45922,4.50781 16.36329,4.50781 4.77021,0 9.32675,-1.00472 13.5039,-3.00976 1.69608,-0.81412 3.23056,-1.85803 4.73047,-2.94532 0.42904,1.05854 1.00539,2.05934 1.78125,2.89063 a 3.7596576,3.7596576 0 0 0 0.18359,0.18359 c 1.76822,1.65034 4.22024,2.55274 6.63282,2.55274 2.41257,0 4.89573,-0.92113 6.61718,-2.64258 1.74997,-1.74999 2.75,-4.26097 2.75,-6.72656 v -24.52149 c 0,-6.30173 -1.5269,-12.1863 -4.57226,-17.38281 -2.94392,-5.21954 -7.09012,-9.40867 -12.24805,-12.36328 -5.12609,-3.05151 -10.94507,-4.58399 -17.17969,-4.58399 z m 68.06836,0 c -4.28719,0 -8.40624,0.69357 -12.27734,2.09375 -3.96635,1.43464 -7.36126,3.68272 -9.9375,6.70313 -2.70514,3.17155 -4.08789,7.23362 -4.08789,11.5664 0,5.42946 2.40242,10.40612 6.64844,13.9004 4.24601,3.49427 10.10202,5.73773 17.51367,7.16601 a 3.7596576,3.7596576 0 0 0 0.0117,0.002 c 5.18134,0.98027 8.69176,2.2907 10.13672,3.26954 a 3.7596576,3.7596576 0 0 0 0.0703,0.0449 c 1.53016,0.98721 1.6875,1.43105 1.6875,2.44922 0,1.09214 -0.13092,1.45737 -1.67969,2.37695 a 3.7596576,3.7596576 0 0 0 -0.0449,0.0273 c -1.39604,0.85564 -3.95105,1.53321 -7.71289,1.53321 -2.70133,0 -5.16263,-0.46132 -7.48633,-1.37305 -2.42426,-1.02636 -4.03082,-2.14436 -4.90039,-3.10547 a 3.7596576,3.7596576 0 0 0 -0.12891,-0.13672 c -1.81178,-1.81176 -4.24202,-3.08203 -6.83789,-3.08203 -2.26845,0 -4.27989,0.94647 -6.07812,2.27149 a 3.7596576,3.7596576 0 0 0 -0.0254,0.0195 c -2.23655,1.67739 -3.70313,4.49331 -3.70313,7.29687 0,2.22485 0.96374,4.50086 2.53125,6.06836 3.00088,3.00088 6.9657,5.26231 11.75196,6.9375 4.81699,1.68594 9.94663,2.51953 15.31835,2.51953 5.37175,0 10.14528,-0.82405 14.26172,-2.625 a 3.7596576,3.7596576 0 0 0 0.0332,-0.0137 c 4.093,-1.83767 7.4361,-4.44286 9.71289,-7.8125 a 3.7596576,3.7596576 0 0 0 0.0254,-0.0391 c 2.2151,-3.36694 3.36914,-7.2488 3.36914,-11.30274 0,-5.47029 -2.26172,-10.47049 -6.37695,-13.96484 -4.16659,-3.6015 -10.32216,-5.85614 -18.61329,-7.53125 -3.7423,-0.77671 -6.53115,-1.55624 -8.23437,-2.2207 -1.65442,-0.72189 -2.50062,-1.4443 -2.57422,-1.52344 -0.22158,-0.32512 -0.38086,-0.68161 -0.38086,-1.48242 0,-0.7543 -0.12211,-0.72745 1.15625,-1.38867 a 3.7596576,3.7596576 0 0 0 0.043,-0.0234 c 1.49404,-0.79682 3.65027,-1.31446 6.58789,-1.31446 2.61916,0 4.69384,0.33835 6.21289,0.88086 a 3.7596576,3.7596576 0 0 0 0.11328,0.0371 c 1.47619,0.47449 2.93638,1.32764 4.4336,2.70508 a 3.7596576,3.7596576 0 0 0 0.0234,0.0215 c 2.11248,1.91128 4.86896,3.0625 7.69141,3.0625 1.83431,0 3.73737,-0.46914 5.28906,-1.59766 a 3.7596576,3.7596576 0 0 0 0.17969,-0.13867 c 1.82404,-1.50213 3.23828,-3.81369 3.23828,-6.3125 0,-2.18992 -0.93222,-4.23762 -2.26953,-5.88477 -2.64599,-3.26338 -6.23021,-5.75948 -10.51562,-7.49219 -4.25622,-1.75059 -9.01068,-2.58789 -14.17579,-2.58789 z m -142.29297,17.41602 c 3.14948,0 5.74424,0.70474 8.07227,2.10156 a 3.7596576,3.7596576 0 0 0 0.0352,0.0215 c 2.4142,1.41318 4.16788,3.27424 5.47851,5.83593 a 3.7596576,3.7596576 0 0 0 0.0332,0.0606 c 1.37726,2.5749 2.08398,5.46958 2.08398,8.89453 0,3.42496 -0.70641,6.31711 -2.08398,8.89258 a 3.7596576,3.7596576 0 0 0 -0.0156,0.0293 c -1.30403,2.48951 -3.06256,4.33331 -5.49609,5.75781 a 3.7596576,3.7596576 0 0 0 -0.0352,0.0215 c -2.32803,1.39682 -4.92279,2.10157 -8.07227,2.10157 -3.14215,0 -5.78685,-0.70588 -8.20117,-2.11524 -2.35947,-1.42007 -4.15037,-3.28707 -5.53515,-5.80859 -1.373,-2.5722 -2.07813,-5.45971 -2.07813,-8.87891 0,-3.42495 0.70672,-6.31964 2.08399,-8.89453 1.39192,-2.60228 3.18305,-4.49204 5.52929,-5.9043 2.41431,-1.40936 5.05903,-2.11523 8.20117,-2.11523 z m 74.22461,0 c 3.03837,0 5.56829,0.71773 7.9043,2.17773 a 3.7596576,3.7596576 0 0 0 0.0937,0.0566 c 2.42613,1.42019 4.23835,3.30771 5.62305,5.89649 1.38319,2.58598 2.08398,5.44164 2.08398,8.7832 0,3.33523 -0.70014,6.1855 -2.07812,8.76758 -1.3814,2.51584 -3.21495,4.43535 -5.67774,5.93945 -2.33619,1.39864 -4.89051,2.09571 -7.94922,2.09571 -3.04459,0 -5.64116,-0.6971 -8.05859,-2.10157 -2.37761,-1.49658 -4.2319,-3.43133 -5.68945,-5.96484 -1.36759,-2.5743 -2.06641,-5.41378 -2.06641,-8.73633 0,-3.32819 0.70005,-6.17222 2.07227,-8.75 1.46819,-2.62005 3.31064,-4.5356 5.66992,-5.95117 a 3.7596576,3.7596576 0 0 0 0.0234,-0.0137 c 2.4265,-1.47958 5.01047,-2.19922 8.04882,-2.19922 z m 183.75196,32.06836 c -2.61194,0 -5.1895,1.10172 -7.08985,2.89648 a 3.7596576,3.7596576 0 0 0 -0.0762,0.0742 c -1.89842,1.89842 -2.9707,4.59286 -2.9707,7.27735 0,2.64665 1.09928,5.29462 2.9707,7.16601 1.87138,1.8714 4.51934,2.9707 7.16602,2.9707 2.64667,0 5.29519,-1.09791 7.16797,-2.9707 1.87143,-1.8714 2.9707,-4.51937 2.9707,-7.16601 0,-2.6287 -1.09176,-5.25255 -2.94141,-7.12305 -1.85266,-1.93938 -4.51751,-3.125 -7.19726,-3.125 z"
         id="path844"
         style="font-style:normal;font-variant:normal;font-weight:bold;font-stretch:normal;font-family:Comfortaa;-inkscape-font-specification:'Comfortaa Bold';stroke-width:2.74912882;fill:#ffffff;fill-opacity:1" />
    </g>
  </g>
</svg>
